<?xml version="1.0" standalone="no"?>
<!DOCTYPE svg PUBLIC "-//W3C//DTD SVG 20010904//EN"
 "http://www.w3.org/TR/2001/REC-SVG-20010904/DTD/svg10.dtd">
<svg version="1.0" xmlns="http://www.w3.org/2000/svg"
 width="456.000000pt" height="434.000000pt" viewBox="0 0 456.000000 434.000000"
 preserveAspectRatio="xMidYMid meet">

<g transform="translate(0.000000,434.000000) scale(0.100000,-0.100000)"
fill="#000000" stroke="none">
<path d="M2450 4315 c264 -29 485 -93 725 -210 98 -47 295 -167 295 -179 0 -3
-34 15 -76 40 -404 239 -843 338 -1300 293 -645 -63 -1252 -429 -1554 -938
-23 -39 -44 -71 -47 -71 -2 0 -1 6 4 12 4 7 8 52 8 101 1 102 5 103 -89 -38
-150 -225 -252 -490 -308 -804 -33 -183 -32 -519 1 -706 27 -156 76 -329 125
-444 19 -46 38 -103 42 -127 4 -27 11 -44 20 -44 7 0 21 -15 30 -32 29 -56
164 -258 173 -258 4 0 7 18 6 40 -2 43 8 52 25 21 5 -11 16 -25 23 -33 7 -7
33 -40 59 -73 152 -198 383 -396 624 -533 243 -140 583 -242 862 -259 131 -8
146 -9 287 -3 88 3 78 4 -85 11 -293 11 -505 55 -763 158 -357 143 -701 417
-926 738 -41 59 -15 34 37 -34 333 -445 838 -744 1402 -829 169 -26 463 -24
640 4 290 45 624 193 870 385 161 126 402 387 489 530 12 20 25 37 27 37 3 0
2 -4 -1 -10 -10 -16 -15 -50 -7 -50 4 0 21 24 37 53 17 28 39 53 49 55 10 2
30 16 43 30 23 26 132 233 147 282 5 14 9 27 11 30 41 93 110 345 99 362 -3 5
-1 14 4 21 5 7 8 21 6 32 -1 10 2 25 7 31 5 7 9 27 9 45 -1 19 0 142 0 274 1
132 1 243 -1 248 -1 4 -3 19 -4 35 -15 136 -76 365 -144 535 -65 163 -183 373
-203 360 -6 -3 -8 -1 -5 4 4 6 -3 24 -15 39 -27 37 -44 54 -33 35 6 -10 4 -12
-4 -7 -7 5 -10 15 -7 23 3 8 2 12 -2 9 -5 -3 -43 34 -84 83 -126 146 -305 301
-478 413 -302 197 -741 331 -1068 327 l-97 -1 115 -13z m-69 -1117 c46 -15
116 -66 137 -99 15 -24 16 -47 12 -194 l-5 -166 -38 -39 c-22 -21 -52 -44 -67
-50 -30 -12 -30 -14 -105 -227 -11 -29 -22 -53 -25 -53 -3 0 -26 59 -50 130
-43 126 -46 132 -87 156 -23 13 -56 41 -73 62 l-31 37 0 153 c0 83 1 156 1
162 0 22 78 95 125 116 56 27 148 32 206 12z m455 -967 c46 -57 48 -61 45
-117 -2 -34 2 -60 9 -64 14 -8 -326 -20 -595 -20 -229 0 -649 12 -622 18 16 3
18 12 15 67 -3 64 -3 64 45 119 l48 56 504 0 503 0 48 -59z m-1039 -503 c5 -7
31 -71 58 -141 27 -70 52 -130 57 -133 4 -3 8 60 8 140 l0 146 79 0 c96 0 137
-13 156 -51 24 -46 19 -87 -15 -121 l-30 -29 28 -42 c47 -69 47 -67 9 -67 -30
0 -38 6 -68 53 -28 42 -40 53 -66 55 l-32 3 -3 -53 -3 -53 -60 0 c-58 0 -60 1
-74 33 -14 32 -15 32 -83 32 l-68 0 -14 -35 c-12 -27 -21 -35 -40 -35 -15 0
-26 3 -26 8 0 4 14 43 31 87 17 44 39 104 50 134 10 30 24 60 30 67 14 17 63
18 76 2z m624 -26 c40 -45 40 -93 -1 -134 l-31 -30 31 -47 c16 -26 30 -51 30
-54 0 -4 -13 -7 -29 -7 -23 0 -35 10 -65 55 -30 46 -41 55 -66 55 -28 0 -29
-2 -32 -52 -3 -49 -5 -53 -30 -56 l-28 -3 0 156 0 157 96 -4 c94 -3 96 -4 125
-36z m114 -117 l0 -150 -30 0 -30 0 -3 140 c-1 76 0 145 3 153 3 8 16 12 32
10 l28 -3 0 -150z m250 125 c0 -24 -2 -25 -83 -28 l-83 -3 3 -32 3 -32 73 -3
c69 -3 73 -4 70 -25 -3 -20 -10 -23 -73 -27 l-70 -5 0 -35 0 -35 83 -3 c80 -3
82 -3 82 -27 l0 -25 -110 0 -110 0 0 155 0 156 108 -3 c107 -3 107 -3 107 -28z
m152 -72 l78 -102 3 97 3 97 27 0 27 0 -2 -147 c-2 -146 -2 -148 -24 -148 -17
0 -41 24 -94 92 -38 51 -73 92 -77 93 -5 0 -8 -43 -8 -96 l0 -95 -27 3 -28 3
-3 140 c-1 76 0 145 2 152 14 34 47 10 123 -89z m-1819 -5 l-2 -98 -3 92 c-4
85 -5 92 -26 96 -18 4 -18 4 6 6 l27 1 -2 -97z m153 2 c41 -52 77 -95 82 -95
4 0 7 43 7 95 0 95 0 95 25 95 l25 0 0 -150 c0 -143 -1 -150 -20 -150 -13 0
-47 35 -102 107 l-83 108 -3 -103 c-2 -94 -4 -102 -22 -102 -19 0 -20 8 -20
145 0 183 6 186 111 50z m2045 76 c39 -24 69 -95 61 -146 -15 -93 -56 -123
-181 -132 l-86 -6 0 152 0 151 88 0 c68 0 94 -4 118 -19z m142 -18 c-24 -26
-26 -34 -24 -113 1 -47 5 -91 9 -97 5 -7 6 -13 3 -13 -2 0 -14 16 -26 36 -18
28 -22 46 -18 90 4 45 10 61 38 89 19 19 36 35 39 35 3 0 -7 -12 -21 -27z
m-1858 -128 c0 -26 0 -26 -77 -23 -64 2 -78 6 -81 20 -3 15 8 18 75 21 43 1
79 4 81 5 1 1 2 -9 2 -23z m520 -294 c0 -3 -17 -6 -37 -6 -35 0 -38 -2 -41
-31 -2 -20 4 -36 17 -48 25 -23 51 -15 44 13 -4 15 -1 21 11 21 19 0 19 -1 6
-34 -12 -32 -51 -35 -80 -6 -37 37 -18 91 35 102 22 5 45 -1 45 -11z m-623
-53 c-2 -13 -4 -3 -4 22 0 25 2 35 4 23 2 -13 2 -33 0 -45z m243 7 c0 -71 -17
-71 -22 0 -2 39 1 55 10 55 8 0 12 -18 12 -55z m145 9 c0 -61 26 -82 56 -45
10 13 19 19 19 13 0 -17 -30 -42 -49 -42 -27 0 -43 25 -51 76 -6 36 -4 44 9
44 12 0 16 -11 16 -46z m75 36 c0 -5 -2 -10 -4 -10 -3 0 -8 5 -11 10 -3 6 -1
10 4 10 6 0 11 -4 11 -10z m318 -50 c26 -53 27 -60 11 -60 -10 0 -19 8 -21 17
-4 23 -49 25 -56 1 -2 -10 -9 -18 -14 -18 -5 0 -8 4 -6 8 2 4 12 31 22 60 11
29 24 52 28 52 4 0 21 -27 36 -60z m168 45 c4 -8 1 -22 -6 -30 -10 -11 -8 -20
9 -41 31 -40 15 -44 -21 -6 -28 31 -29 34 -13 46 20 14 13 36 -12 36 -12 0
-14 -11 -11 -55 2 -44 0 -55 -12 -55 -12 0 -15 13 -15 60 l0 60 38 0 c24 0 40
-5 43 -15z m169 -45 c1 -35 -4 -60 -10 -60 -6 0 -10 25 -10 60 0 33 4 60 10
60 6 0 10 -27 10 -60z m96 13 c-2 -36 1 -50 15 -60 16 -12 15 -13 -12 -13 -29
0 -29 0 -29 60 0 47 3 60 15 60 12 0 14 -10 11 -47z m60 37 c24 -14 26 -72 2
-91 -15 -13 -15 -12 -4 9 17 31 6 71 -22 82 -12 5 -16 9 -9 9 7 1 22 -4 33 -9z
m112 -2 c-6 -7 -9 -32 -8 -55 2 -24 -1 -43 -5 -43 -5 0 -10 25 -12 55 -3 48
-1 55 16 55 13 0 16 -3 9 -12z m-926 -40 c-3 -8 -6 -5 -6 6 -1 11 2 17 5 13 3
-3 4 -12 1 -19z m-157 -52 c0 -3 -4 -8 -10 -11 -5 -3 -10 -1 -10 4 0 6 5 11
10 11 6 0 10 -2 10 -4z m-1262 -81 c-3 -3 -9 2 -12 12 -6 14 -5 15 5 6 7 -7
10 -15 7 -18z"/>
<path d="M2201 2996 c-64 -64 -70 -74 -52 -79 18 -4 21 -13 21 -66 l0 -61 48
0 47 0 0 37 c0 31 4 38 20 38 16 0 21 -8 23 -37 l3 -38 50 0 49 0 0 65 c0 54
3 65 17 65 13 0 11 6 -10 28 -19 20 -27 39 -27 65 0 33 -3 37 -25 37 -14 0
-25 -5 -25 -12 0 -6 -10 -2 -23 10 -13 12 -28 22 -33 22 -5 0 -42 -33 -83 -74z"/>
<path d="M1746 2171 c-9 -10 -16 -21 -16 -24 0 -4 68 -7 150 -7 127 0 152 2
157 15 3 9 4 17 2 19 -2 2 -65 6 -140 9 -123 5 -138 4 -153 -12z"/>
<path d="M2637 2183 c-96 -3 -108 -6 -105 -21 3 -15 21 -17 156 -20 83 -1 152
1 152 6 0 19 -38 42 -66 40 -16 -1 -78 -4 -137 -5z"/>
<path d="M2137 2174 c-4 -4 -7 -13 -7 -21 0 -11 29 -13 153 -11 127 3 152 5
152 18 0 13 -24 15 -146 18 -80 1 -148 -1 -152 -4z"/>
<path d="M1980 1635 l0 -45 54 0 c61 0 79 14 74 57 -3 27 -5 28 -65 31 l-63 3
0 -46z"/>
<path d="M1731 1614 c-11 -31 -21 -58 -21 -60 0 -2 22 -4 49 -4 l49 0 -21 60
c-12 33 -24 60 -28 60 -3 0 -16 -25 -28 -56z"/>
<path d="M2260 1635 l0 -45 46 0 c57 0 84 14 84 43 0 35 -19 47 -77 47 l-53 0
0 -45z"/>
<path d="M3167 1683 c-4 -3 -7 -51 -7 -105 l0 -98 56 0 c48 0 59 4 85 29 21
22 29 39 29 66 0 47 -25 93 -56 105 -29 11 -97 13 -107 3z"/>
<path d="M2227 1225 c-7 -16 8 -29 23 -20 10 6 2 35 -10 35 -4 0 -10 -7 -13
-15z"/>
<path d="M3050 155 l-25 -14 33 -1 c22 0 32 5 32 15 0 18 -8 18 -40 0z"/>
<path d="M2523 83 c9 -2 25 -2 35 0 9 3 1 5 -18 5 -19 0 -27 -2 -17 -5z"/>
</g>
</svg>
